<?xml version="1.0" encoding="iso-8859-1"?>
<!-- Generator: Adobe Illustrator 19.0.0, SVG Export Plug-In . SVG Version: 6.00 Build 0)  -->
<svg version="1.1" id="Capa_1" xmlns="http://www.w3.org/2000/svg" xmlns:xlink="http://www.w3.org/1999/xlink" x="0px" y="0px"
	 viewBox="0 0 482.296 482.296" style="enable-background:new 0 0 482.296 482.296;" xml:space="preserve">
<g>
	<g>
		<circle cx="185.148" cy="192" r="16"/>
	</g>
</g>
<g>
	<g>
		<path d="M425.148,392h-64h-48v-42.28c19.072-10.288,35.944-24.568,49.248-42.176c1.688,16.792,1.36,34.024-1.168,51.296
			c-0.6,4.08,2,7.944,6,8.928c0.648,0.16,1.288,0.232,1.92,0.232c3.328,0,6.4-2.08,7.544-5.344
			c18.56-52.832,29.072-124.632,32.456-170.656v-16c0-97.048-78.952-176-176-176s-176,78.952-176,176v87.504
			c0,42.648,23,82.288,60.032,103.44c2.472,1.416,5.512,1.408,7.984-0.024c2.472-1.432,3.984-4.072,3.984-6.92v-41.392
			c11.6,12.68,25.112,23.248,40,31.264V392h-48h-64c-30.872,0-56,25.12-56,56v32h16v-32c0-22.056,17.944-40,40-40h58.048
			l22.288,74.296l15.328-4.592l-18.064-60.216l102.28,61.368c2.528,1.52,5.704,1.52,8.232,0l102.288-61.368l-18.064,60.208
			l15.328,4.592L367.1,408h58.048c22.056,0,40,17.944,40,40v32h16v-32C481.148,417.12,456.02,392,425.148,392z M121.148,152
			c-4.424,0-8,3.584-8,8v135.536v49.512c-24.968-19.36-40-49.472-40-81.544V176c0-88.224,71.776-160,160-160s160,71.776,160,160
			l0.024,15.408C390.9,222.104,385.516,261.8,377.508,299c-2.2-16.56-6.432-32.584-12.192-47.88
			c-0.072-0.192-0.136-0.384-0.216-0.576c-1.888-4.976-3.968-9.856-6.224-14.648c-0.288-0.608-0.576-1.216-0.864-1.824
			c-2.12-4.4-4.376-8.704-6.792-12.928c-0.584-1.032-1.2-2.04-1.808-3.056c-2.256-3.776-4.576-7.496-7.072-11.104
			c-1.032-1.504-2.128-2.936-3.2-4.408c-2.248-3.072-4.496-6.128-6.912-9.064c-1.768-2.152-3.664-4.168-5.52-6.232
			c-1.952-2.168-3.84-4.392-5.888-6.464c-3.824-3.872-7.808-7.56-11.944-11.064c-0.28-0.232-0.52-0.504-0.8-0.736
			c-6.376-5.328-13.048-10.2-19.752-14.936c-3.824-2.704-7.656-5.4-11.432-8.008c-4.616-3.176-9.312-6.408-13.936-9.728
			c-4.632-3.32-9.2-6.728-13.56-10.264c-12.744-10.32-34.936-31.296-40.448-55.84c-0.888-3.984-4.696-6.592-8.688-6.2
			c-4.04,0.456-7.112,3.88-7.112,7.96C193.148,108.008,159.924,152,121.148,152z M129.148,293.08V167.528
			c35.032-4.144,64.04-34.88,75.144-67.688c10.488,17.136,25.248,30.752,35.04,38.68c9.208,7.464,19.024,14.216,28.512,20.744
			c3.68,2.536,7.392,5.152,11.096,7.768c4.496,3.176,8.84,6.48,13.16,9.856c-6.344,2.128-10.952,8.048-10.952,15.112
			c0,8.84,7.16,16,16,16c7.584,0,13.896-5.288,15.552-12.368c1.832,1.96,3.696,3.888,5.44,5.936c0.392,0.464,0.784,0.928,1.176,1.4
			c18.912,22.768,32.528,50.832,39.248,81.584C334.18,326.232,289.46,352,241.148,352C196.3,352,154.604,330.016,129.148,293.08z
			 M241.148,462.672L150.028,408h27.12c4.424,0,8-3.584,8-8v-42.704c17.56,6.968,36.504,10.704,56,10.704
			c19.496,0,38.432-3.824,56-10.808V400c0,4.416,3.576,8,8,8h27.12L241.148,462.672z"/>
	</g>
</g>
<g>
	<g>
		<path d="M275.588,258.248c-19,18.328-49.888,18.328-68.888,0l-11.112,11.512c12.56,12.12,29.056,18.176,45.552,18.176
			c16.496,0,33-6.064,45.56-18.176L275.588,258.248z"/>
	</g>
</g>
<g>
</g>
<g>
</g>
<g>
</g>
<g>
</g>
<g>
</g>
<g>
</g>
<g>
</g>
<g>
</g>
<g>
</g>
<g>
</g>
<g>
</g>
<g>
</g>
<g>
</g>
<g>
</g>
<g>
</g>
</svg>
