<?xml version="1.0" encoding="iso-8859-1"?>
<!-- Generator: Adobe Illustrator 19.0.0, SVG Export Plug-In . SVG Version: 6.00 Build 0)  -->
<svg version="1.1" id="Capa_1" xmlns="http://www.w3.org/2000/svg" xmlns:xlink="http://www.w3.org/1999/xlink" x="0px" y="0px"
	 viewBox="0 0 472 472" style="enable-background:new 0 0 472 472;" xml:space="preserve">
<path style="fill:#FFE3D1;" d="M356,392h-56v-55.144c0,0-0.008,0-0.016,0.008c-4.384,2.184-8.896,4.128-13.52,5.864
	c-0.92,0.352-1.848,0.688-2.784,1.016c-2.944,1.032-5.92,1.984-8.952,2.832c-2.336,0.664-4.688,1.272-7.064,1.816
	c-1.576,0.352-3.16,0.704-4.76,1c-3.656,0.704-7.36,1.28-11.12,1.696c-0.92,0.104-1.848,0.168-2.776,0.248
	C244.728,351.736,240.4,352,236,352s-8.728-0.264-13.024-0.656c-0.928-0.08-1.856-0.152-2.776-0.248
	c-3.752-0.416-7.456-0.992-11.12-1.696c-1.6-0.304-3.176-0.648-4.76-1c-2.384-0.544-4.736-1.16-7.064-1.816
	c-3.032-0.848-6.008-1.8-8.952-2.832c-0.928-0.328-1.856-0.672-2.784-1.016c-4.624-1.736-9.136-3.68-13.52-5.864h-0.008L172,392h-56
	l120,72L356,392z"/>
<polygon style="fill:#FFD6C2;" points="172.016,352 236,376 300,351.136 300,328 172,328 "/>
<path style="fill:#6ACCEF;" d="M420,392h-64l-24,80h136v-32C468,413.488,446.512,392,420,392z"/>
<polygon style="fill:#FFFFFF;" points="236,464 116,392 140,472 332,472 356,392 "/>
<path style="fill:#6ACCEF;" d="M52,392c-26.512,0-48,21.488-48,48v32h136l-24-80H52z"/>
<path style="fill:#FFE3D1;" d="M196,64c0,39.8-35.784,88-80,88v135.536C141.792,326.368,185.888,352,236,352
	c54.16,0,101.28-29.928,125.864-74.12c-8.696-42.768-30.336-82.512-64.064-110.72c-18.568-15.528-39.784-27.624-58.592-42.856
	C220.4,109.064,201.296,87.616,196,64"/>
<g>
	<circle style="fill:#2D2E46;" cx="180" cy="184" r="16"/>
	<circle style="fill:#2D2E46;" cx="292" cy="184" r="16"/>
</g>
<path style="fill:#E05346;" d="M196,64c0,24.208,24.4,45.064,43.208,60.304s40.024,27.328,58.592,42.856
	c52.848,44.2,76.176,116.672,66.2,184.84c16.832-47.912,28.248-117.352,32-168v-16C396,75.216,320.784,0,228,0l0,0
	C135.216,0,60,75.216,60,168v87.504c0,39.88,21.368,76.712,56,96.496l0,0V152C160.216,152,196,103.8,196,64z"/>
<path style="fill:#2D2E46;" d="M236,279.936c-16.496,0-32.992-6.056-45.552-18.176l11.112-11.512c19,18.328,49.888,18.328,68.888,0
	l11.112,11.512C268.992,273.872,252.496,279.936,236,279.936z"/>
<g>
</g>
<g>
</g>
<g>
</g>
<g>
</g>
<g>
</g>
<g>
</g>
<g>
</g>
<g>
</g>
<g>
</g>
<g>
</g>
<g>
</g>
<g>
</g>
<g>
</g>
<g>
</g>
<g>
</g>
</svg>
